HIERARCHY
ROOT Hips
{
	OFFSET -32.860001 56.121803 44.745396
	CHANNELS 6 Xposition Yposition Zposition Zrotation Xrotation Yrotation
	JOINT Chest
	{
		OFFSET -0.637402 0.831600 5.390099
		CHANNELS 6 Xposition Yposition Zposition Zrotation Xrotation Yrotation
		JOINT Chest2
		{
			OFFSET 0.000000 0.000000 4.429901
			CHANNELS 6 Xposition Yposition Zposition Zrotation Xrotation Yrotation
			JOINT Neck
			{
				OFFSET 0.000000 0.000000 10.301395
				CHANNELS 6 Xposition Yposition Zposition Zrotation Xrotation Yrotation
				JOINT Head
				{
					OFFSET 0.000000 0.000000 2.173897
					CHANNELS 6 Xposition Yposition Zposition Zrotation Xrotation Yrotation
					End Site
					{
						OFFSET 0.000000 0.000000 8.298004
					}
				}
			}
			JOINT LeftCollar
			{
				OFFSET 2.142401 -0.572701 5.717800
				CHANNELS 6 Xposition Yposition Zposition Zrotation Xrotation Yrotation
				JOINT LeftShoulder
				{
					OFFSET 5.674000 0.000000 0.000000
					CHANNELS 6 Xposition Yposition Zposition Zrotation Xrotation Yrotation
					JOINT LeftElbow
					{
						OFFSET 0.000000 0.000000 -12.238701
						CHANNELS 6 Xposition Yposition Zposition Zrotation Xrotation Yrotation
						JOINT LeftWrist
						{
							OFFSET 0.000000 0.000000 -10.253700
							CHANNELS 6 Xposition Yposition Zposition Zrotation Xrotation Yrotation
							End Site
							{
								OFFSET 0.000000 0.000000 -2.173901
							}
						}
					}
				}
			}
			JOINT RightCollar
			{
				OFFSET -2.882599 -1.580101 6.695801
				CHANNELS 6 Xposition Yposition Zposition Zrotation Xrotation Yrotation
				JOINT RightShoulder
				{
					OFFSET -4.235600 0.000000 0.000000
					CHANNELS 6 Xposition Yposition Zposition Zrotation Xrotation Yrotation
					JOINT RightElbow
					{
						OFFSET 0.000000 0.000000 -10.709900
						CHANNELS 6 Xposition Yposition Zposition Zrotation Xrotation Yrotation
						JOINT RightWrist
						{
							OFFSET 0.000000 0.000000 -11.716801
							CHANNELS 6 Xposition Yposition Zposition Zrotation Xrotation Yrotation
							End Site
							{
								OFFSET 0.000000 0.000000 -2.173901
							}
						}
					}
				}
			}
		}
	}
	JOINT LeftHip
	{
		OFFSET 2.279499 0.210400 -2.475502
		CHANNELS 6 Xposition Yposition Zposition Zrotation Xrotation Yrotation
		JOINT LeftKnee
		{
			OFFSET 0.000000 -0.000004 -20.742800
			CHANNELS 6 Xposition Yposition Zposition Zrotation Xrotation Yrotation
			JOINT LeftAnkle
			{
				OFFSET 0.000000 0.000000 -16.666000
				CHANNELS 6 Xposition Yposition Zposition Zrotation Xrotation Yrotation
				End Site
				{
					OFFSET 0.000000 -8.310898 0.000000
				}
			}
		}
	}
	JOINT RightHip
	{
		OFFSET -1.961899 0.232300 -2.727402
		CHANNELS 6 Xposition Yposition Zposition Zrotation Xrotation Yrotation
		JOINT RightKnee
		{
			OFFSET 0.000000 -0.000004 -20.526800
			CHANNELS 6 Xposition Yposition Zposition Zrotation Xrotation Yrotation
			JOINT RightAnkle
			{
				OFFSET 0.000000 0.000000 -16.867300
				CHANNELS 6 Xposition Yposition Zposition Zrotation Xrotation Yrotation
				End Site
				{
					OFFSET 0.000000 -7.186401 0.000000
				}
			}
		}
	}
}
MOTION
Frames: 8
Frame Time: 0.041667
9.644512 29.983501 43.227093 1100.783558 6.590354 -3.823890 -0.637399 0.831604 5.390094 -19.272357 -20.469420 -11.385819 -0.000005 -0.000007 4.429897 21.851310 0.476551 1.065165 -0.000009 0.000004 10.301403 314.446255 -24.746805 -6.111465 -0.000004 0.000006 2.173901 -345.347123 -13.790076 -7.969506 2.142391 -0.572703 5.717802 -5.004768 -0.883455 -2.066709 5.673998 -0.000010 0.000003 154.438650 142.676778 164.657092 0.000003 0.000002 -12.238698 512.130316 -546.933299 -179.800905 -0.000002 0.000002 -10.253697 -654.172897 -15.015621 22.221372 -2.882607 -1.580098 6.695801 -9.437953 -7.983364 25.536588 -4.235610 -0.000004 -0.000016 -74.923384 225.068612 7.325073 0.000002 0.000010 -10.709908 -14.595187 3.647001 4.207115 -0.000005 0.000010 -11.716801 8.360039 12.784721 22.558438 2.279493 0.210405 -2.475500 404.158358 -31.537435 1.467175 0.000008 -0.000002 -20.742800 -5.822232 20.540679 -13.420229 -0.000001 -0.000003 -16.666000 -31.651213 37.081534 18.584631 -1.961903 0.232301 -2.727415 -641.953962 37.129260 -6.326185 -0.000004 -0.000006 -20.526798 836.576978 177.688601 -193.984763 -0.000002 -0.000002 -16.867300 -400.274111 49.465323 -31.209887
9.725410 29.994902 43.262188 1102.478319 6.494386 -3.600961 -0.637405 0.831603 5.390099 -21.086452 -20.376538 -12.071394 -0.000002 -0.000000 4.429901 23.893890 0.652452 1.180185 -0.000010 0.000010 10.301398 312.296439 -24.658364 -6.065804 0.000006 -0.000005 2.173907 -345.394579 -13.510644 -8.237976 2.142397 -0.572695 5.717803 -5.045077 -0.975210 -1.460961 5.674000 -0.000010 -0.000001 152.102289 143.306890 168.246861 -0.000006 0.000005 -12.238707 510.334905 -546.847184 -179.798241 -0.000004 0.000002 -10.253699 -651.970899 -14.427192 22.298592 -2.882601 -1.580093 6.695802 -10.102579 -6.554407 25.576343 -4.235602 -0.000001 0.000002 -67.432702 222.691501 12.780284 -0.000003 0.000005 -10.709905 -19.339892 1.328678 3.577872 -0.000008 -0.000001 -11.716799 16.984261 12.912182 26.309931 2.279483 0.210400 -2.475493 405.938933 -32.086415 3.012158 -0.000001 -0.000005 -20.742798 -5.394576 20.074892 -13.885564 -0.000003 -0.000000 -16.666000 -35.522011 37.626354 19.569088 -1.961903 0.232306 -2.727411 -642.938001 36.657943 -6.527479 -0.000004 -0.000005 -20.526802 837.002745 177.308077 -193.447473 0.000003 -0.000000 -16.867300 -399.370559 50.506828 -31.522259
9.807110 30.015003 43.288895 1104.211220 6.356644 -3.419156 -0.637400 0.831606 5.390104 -22.917634 -20.226043 -12.723647 0.000002 -0.000007 4.429898 26.009721 0.849168 1.285198 -0.000010 0.000002 10.301397 310.024308 -24.590252 -5.968484 -0.000004 0.000009 2.173891 -345.497961 -13.145960 -8.551509 2.142394 -0.572703 5.717801 -5.029086 -1.024103 -0.832038 5.673998 -0.000010 0.000007 150.616504 144.158888 171.211478 -0.000001 -0.000005 -12.238699 508.456822 -546.855708 -179.783939 0.000001 0.000006 -10.253707 -650.162046 -13.839152 22.459241 -2.882607 -1.580095 6.695794 -9.596238 -6.173989 25.840786 -4.235601 0.000000 -0.000011 -63.409878 220.982233 14.890948 0.000003 0.000005 -10.709895 -24.399043 -0.949129 2.506306 -0.000006 0.000005 -11.716805 25.107524 13.087672 30.454485 2.279490 0.210402 -2.475490 407.830513 -32.548986 4.697259 -0.000001 -0.000002 -20.742794 -4.909908 19.637258 -14.407801 0.000004 -0.000001 -16.666000 -39.672126 38.141231 20.769562 -1.961896 0.232303 -2.727398 -644.273603 36.221176 -6.496902 0.000005 -0.000004 -20.526798 837.835318 176.794597 -192.839736 0.000002 0.000001 -16.867296 -398.281171 51.534819 -31.695042
9.885006 30.047901 43.307892 1106.092418 6.210586 -3.225858 -0.637402 0.831592 5.390099 2.917137 -22.372157 -1.440950 -0.000001 -0.000003 4.429899 2.270616 -0.385001 0.025273 0.000002 -0.000004 10.301396 307.647457 -24.587224 -5.875068 -0.000007 -0.000001 2.173908 -345.650766 -12.706514 -8.881634 2.142400 -0.572699 5.717802 -4.911502 -1.101630 -0.270072 5.674000 -0.000007 0.000008 150.662731 145.215614 173.175362 0.000001 0.000010 -12.238698 506.564094 -546.991274 -179.728041 -0.000000 0.000004 -10.253707 -649.447226 -14.193594 22.166346 -2.882603 -1.580095 6.695792 -8.750660 -5.830626 26.239866 -4.235601 -0.000002 0.000002 -60.818292 219.724727 15.917139 0.000001 0.000005 -10.709904 -40.765267 -3.128384 0.347787 -0.000008 -0.000006 -11.716812 44.600562 12.914739 34.767446 2.279501 0.210400 -2.475502 409.715099 -32.998618 6.521411 0.000000 -0.000003 -20.742802 -4.266746 19.199713 -15.034600 -0.000000 0.000004 -16.665997 -44.237581 38.625112 22.224662 -1.961901 0.232300 -2.727406 -645.997762 35.777163 -6.239894 -0.000004 -0.000005 -20.526802 839.262554 176.144227 -192.216509 0.000000 0.000002 -16.867302 -397.099549 52.439109 -32.188633
9.955116 30.093706 43.319687 1108.163769 5.980669 -3.051769 -0.637400 0.831602 5.390098 3.430895 -22.290870 -1.017721 -0.000005 0.000004 4.429897 2.124370 -0.320956 0.036822 0.000002 0.000002 10.301386 306.757948 -24.969843 -5.662131 -0.000001 -0.000002 2.173883 -346.867523 -12.116510 -8.719834 2.142400 -0.572699 5.717799 -4.064774 1.440285 0.161373 5.673996 0.000001 0.000007 162.043725 150.764036 167.037085 -0.000003 -0.000005 -12.238708 532.584875 -546.325139 -181.800716 0.000003 -0.000005 -10.253696 -674.475498 -9.706269 16.918399 -2.882597 -1.580091 6.695791 -7.743006 -5.489466 26.719750 -4.235604 0.000000 -0.000005 -59.412462 218.904107 16.139180 -0.000003 0.000006 -10.709901 -36.898301 -4.884997 -1.292875 -0.000004 -0.000005 -11.716807 43.794449 12.788203 38.997833 2.279505 0.210407 -2.475497 411.395107 -33.349092 8.373219 -0.000003 -0.000010 -20.742798 -3.517416 18.775234 -15.776837 -0.000001 -0.000002 -16.665998 -49.231904 38.986286 24.380261 -1.961893 0.232296 -2.727404 -647.789457 35.320165 -6.063498 0.000003 0.000000 -20.526802 840.944639 175.341283 -191.679178 -0.000001 -0.000002 -16.867298 -396.256321 53.386688 -31.258251
10.024506 30.151403 43.320488 1110.424397 5.708143 -2.880461 -0.637401 0.831599 5.390095 3.978201 -22.106353 -0.589961 -0.000003 -0.000003 4.429903 1.908019 -0.280018 0.049149 -0.000006 -0.000002 10.301405 307.263027 -25.697516 -5.239823 -0.000001 0.000004 2.173897 -349.014880 -11.400322 -8.094516 2.142395 -0.572697 5.717812 -4.100824 0.611066 0.719394 5.673999 0.000005 0.000006 170.817116 152.772521 164.282292 0.000002 -0.000002 -12.238697 520.625979 -545.452951 -180.117921 0.000000 0.000001 -10.253691 -646.605266 -3.095989 13.977962 -2.882609 -1.580097 6.695801 -6.631186 -5.031070 27.256628 -4.235604 -0.000006 -0.000015 -59.219741 218.499609 15.698594 0.000002 -0.000001 -10.709905 -33.818223 -6.844822 -2.862172 -0.000010 -0.000001 -11.716787 43.664638 12.533985 42.659248 2.279499 0.210405 -2.475501 413.075935 -33.626421 10.370179 -0.000004 -0.000006 -20.742798 -2.441901 18.224411 -16.582719 -0.000005 -0.000003 -16.666000 -54.400455 39.525362 25.755057 -1.961893 0.232306 -2.727399 -649.733875 34.868362 -5.857685 -0.000002 -0.000005 -20.526802 842.985335 174.365413 -191.227251 -0.000005 0.000001 -16.867296 -394.202729 53.265999 -34.597852
10.089600 30.218498 43.312191 1112.750487 5.439583 -2.675911 -0.637399 0.831596 5.390094 4.640634 -21.843640 -0.104756 -0.000003 -0.000006 4.429905 1.658320 -0.249215 0.030725 -0.000006 0.000002 10.301398 309.043111 -26.624424 -4.581384 0.000003 0.000000 2.173893 -351.883259 -10.738014 -7.165919 2.142400 -0.572704 5.717812 -4.055462 -0.367950 1.195557 5.674002 -0.000003 0.000010 177.373032 153.775808 162.628949 0.000004 -0.000005 -12.238703 542.458268 -543.558147 -180.675538 0.000006 -0.000003 -10.253695 -645.324906 -1.218215 14.127234 -2.882603 -1.580096 6.695796 -5.464318 -4.780689 27.810713 -4.235605 -0.000002 0.000002 -59.916605 218.540440 14.559240 0.000004 -0.000001 -10.709894 -31.258856 -8.885894 -4.302014 -0.000006 0.000006 -11.716823 44.106271 12.090710 45.640997 2.279493 0.210402 -2.475501 414.193709 -33.871707 12.174658 0.000000 -0.000006 -20.742798 -1.180871 17.646333 -17.490277 -0.000004 0.000004 -16.665997 -59.686790 39.805045 27.776117 -1.961898 0.232306 -2.727407 -651.422571 34.403588 -5.803775 0.000008 -0.000003 -20.526798 845.431964 173.310313 -190.973879 0.000003 0.000000 -16.867298 -393.382450 53.656627 -34.065340
10.162704 30.327009 43.274788 1115.656650 5.232718 -2.443206 -0.637398 0.831595 5.390099 5.978467 -21.455007 0.608714 -0.000003 -0.000001 4.429896 1.166423 -0.237619 0.055550 -0.000008 0.000011 10.301398 313.436698 -27.757658 -3.104271 0.000004 -0.000002 2.173899 -355.684287 -10.208570 -5.545294 2.142396 -0.572701 5.717795 -3.978991 -1.411075 1.743834 5.674003 -0.000003 0.000001 181.226912 153.428889 162.437061 0.000005 -0.000001 -12.238698 548.020938 -541.658918 -179.694559 0.000003 -0.000001 -10.253703 -631.692176 -3.216891 15.519066 -2.882606 -1.580093 6.695795 -3.823945 -4.691628 28.755206 -4.235604 -0.000001 -0.000006 -61.877088 219.173927 12.523294 0.000003 -0.000006 -10.709908 -28.434252 -11.221375 -5.662156 -0.000009 0.000002 -11.716809 45.010165 11.441935 47.856772 2.279502 0.210402 -2.475502 415.300637 -34.175736 14.526293 0.000002 -0.000005 -20.742798 0.507396 16.892308 -18.778227 0.000000 -0.000002 -16.666002 -66.146612 40.186996 30.379595 -1.961897 0.232300 -2.727402 -652.295797 33.925966 -6.306306 0.000002 -0.000007 -20.526802 849.618323 172.148880 -191.318311 -0.000002 0.000002 -16.867298 -392.649161 52.596220 -37.707149
